<?xml version="1.0" encoding="UTF-8" standalone="no"?>
<svg
   xmlns:dc="http://purl.org/dc/elements/1.1/"
   xmlns:cc="http://creativecommons.org/ns#"
   xmlns:rdf="http://www.w3.org/1999/02/22-rdf-syntax-ns#"
   xmlns:svg="http://www.w3.org/2000/svg"
   xmlns="http://www.w3.org/2000/svg"
   xmlns:sodipodi="http://sodipodi.sourceforge.net/DTD/sodipodi-0.dtd"
   xmlns:inkscape="http://www.inkscape.org/namespaces/inkscape"
   version="1.1"
   width="17"
   height="17"
   viewBox="0 0 17 17"
   id="svg2"
   inkscape:version="0.91 r13725"
   sodipodi:docname="bold.svg">
  <metadata
     id="metadata10">
    <rdf:RDF>
      <cc:Work
         rdf:about="">
        <dc:format>image/svg+xml</dc:format>
        <dc:type
           rdf:resource="http://purl.org/dc/dcmitype/StillImage" />
        <dc:title></dc:title>
      </cc:Work>
    </rdf:RDF>
  </metadata>
  <defs
     id="defs8" />
  <sodipodi:namedview
     pagecolor="#ffffff"
     bordercolor="#666666"
     borderopacity="1"
     objecttolerance="10"
     gridtolerance="10"
     guidetolerance="10"
     inkscape:pageopacity="0"
     inkscape:pageshadow="2"
     inkscape:window-width="1920"
     inkscape:window-height="1177"
     id="namedview6"
     showgrid="false"
     inkscape:zoom="4"
     inkscape:cx="-7.0657575"
     inkscape:cy="-22.746759"
     inkscape:window-x="-8"
     inkscape:window-y="-8"
     inkscape:window-maximized="1"
     inkscape:current-layer="svg2" />
  <g
     transform="matrix(1.0686015,0,0,1.0106327,0.57015645,-0.05792037)"
     style="font-style:normal;font-variant:normal;font-weight:normal;font-stretch:normal;font-size:26.92496109px;line-height:125%;font-family:'8514fix';-inkscape-font-specification:'8514fix';letter-spacing:0px;word-spacing:0px;fill:#000000;fill-opacity:1;stroke:none;stroke-width:1px;stroke-linecap:butt;stroke-linejoin:miter;stroke-opacity:1"
     id="text4138">
    <path
       style="font-style:normal;font-variant:normal;font-weight:normal;font-stretch:normal;font-family:'Microsoft Yi Baiti';-inkscape-font-specification:'Microsoft Yi Baiti'"
       d="m 1.087545,1.0467888 0,1.4900376 1.7813245,0 0,11.8680846 -1.7813245,0 0,1.484068 7.2366738,-3.04e-4 C 11.617026,15.888537 13.742678,14.438856 13.753953,11.630815 13.760753,9.9310369 12.842354,8.6456218 11.271484,8.0058624 12.175417,7.5662119 12.926215,6.6792407 12.907567,4.8241699 12.879181,2.0004191 10.592136,1.0831254 8.2988281,1.046875 Z M 8.2070312,2.5251951 C 10.089824,2.5065245 11.522164,3.060153 11.519578,4.8984343 11.516727,6.9247307 9.5344299,7.361449 8.0098126,7.3710906 l -3.6425781,0 0,-4.8342642 z m -3.8398437,6.3439455 3.6542969,0 C 10.68595,8.8230297 12.199398,9.767998 12.164096,11.63086 12.12001,13.957263 9.9755677,14.392747 8.312534,14.404606 l -3.9453125,3.05e-4 0,-5.5357698 z"
       id="path4145"
       inkscape:connector-curvature="0"
       sodipodi:nodetypes="ccccccsscscccsccccccscccc" />
  </g>
</svg>
