<?xml version="1.0" encoding="UTF-8" standalone="no"?>
<svg
   xmlns:dc="http://purl.org/dc/elements/1.1/"
   xmlns:cc="http://creativecommons.org/ns#"
   xmlns:rdf="http://www.w3.org/1999/02/22-rdf-syntax-ns#"
   xmlns:svg="http://www.w3.org/2000/svg"
   xmlns="http://www.w3.org/2000/svg"
   xmlns:sodipodi="http://sodipodi.sourceforge.net/DTD/sodipodi-0.dtd"
   xmlns:inkscape="http://www.inkscape.org/namespaces/inkscape"
   version="1.1"
   width="17"
   height="17"
   viewBox="0 0 17 17"
   id="svg4136"
   inkscape:version="0.91 r13725"
   sodipodi:docname="h3.svg">
  <metadata
     id="metadata4144">
    <rdf:RDF>
      <cc:Work
         rdf:about="">
        <dc:format>image/svg+xml</dc:format>
        <dc:type
           rdf:resource="http://purl.org/dc/dcmitype/StillImage" />
      </cc:Work>
    </rdf:RDF>
  </metadata>
  <defs
     id="defs4142" />
  <sodipodi:namedview
     pagecolor="#ffffff"
     bordercolor="#666666"
     borderopacity="1"
     objecttolerance="10"
     gridtolerance="10"
     guidetolerance="10"
     inkscape:pageopacity="0"
     inkscape:pageshadow="2"
     inkscape:window-width="1536"
     inkscape:window-height="841"
     id="namedview4140"
     showgrid="false"
     inkscape:zoom="56.069408"
     inkscape:cx="6.8951979"
     inkscape:cy="8.0114177"
     inkscape:window-x="-8"
     inkscape:window-y="-8"
     inkscape:window-maximized="1"
     inkscape:current-layer="svg4136" />
  <path
     d="m 12.8,13 c -0.965,-0.24 -1.88,-0.975 -1.88,-1.83 0,-0.426 0.151,-0.712 0.52,-0.778 0.731,-0.129 0.778,0.613 1.05,1.28 0.273,0.663 0.634,0.886 1.44,0.83 0.86,-0.0595 1.34,-0.65 1.54,-1.12 0.194,-0.468 0.336,-1.38 -0.026,-2.23 -0.3,-0.7 -1.3,-0.71 -3,-0.43 -0.1,-0.09 -0.4,-0.49 -0.5,-0.58 1.2,-1.44 2,-2.18 3.2,-3.47 -1,-0.03 -1.8,-0.03 -2.7,0 -0.6,0 -0.7,0.47 -1,1.33 l -0.3,0.01 0,-2.17 5.9,0 -3.8,4.02 c 3.6,-0.551 4.34,1.97 3.32,3.75 -1.63,1.95 -3.1,1.57 -3.75,1.4 z M 0,12.6 l 1.22,0 0,-8.28 -1.22,0 0,-0.448 3.51,0 0,0.448 -1.15,0 0,3.71 4.48,0 0,-3.71 -1.15,0 0,-0.448 3.51,0 0,0.448 -1.15,0 0,8.28 1.14,0 0,0.5 -3.51,0 0,-0.5 1.16,0 0,-4.02 -4.48,0 0,3.99 1.14,0.0315 0,0.5 -3.5,0 z"
     id="path4138"
     inkscape:connector-curvature="0"
     sodipodi:nodetypes="cscccccccccccccccccccccccccccccccccccccccccccccc" />
</svg>
