<svg xmlns="http://www.w3.org/2000/svg" version="1.1" width="17" height="17" viewBox="0 0 17 17">
	<path d="m8.5 0c-4.69 0-8.5 3.81-8.5 8.5 0 4.7 3.81 8.5 8.5 8.5 4.7 0 8.5-3.8 8.5-8.5 0-4.69-3.8-8.5-8.5-8.5zm0 1c4.1 0 7.5 3.35 7.5 7.5 0 4.1-3.4 7.5-7.5 7.5-4.15 0-7.5-3.4-7.5-7.5 0-4.15 3.35-7.5 7.5-7.5z"/>
	<path d="m9.32 13a1 1 0 0 1 -1 1 1 1 0 0 1 -1 -1 1 1 0 0 1 1 -1 1 1 0 0 1 1 1z"/>
	<path d="m8.63 2.74c-1.04-0.01-1.74 0.25-2.17 0.56-0.35 0.24-0.48 0.44-0.62 0.74-0.36 0.74 0.87 1.2 1.13 0.41 0.33-0.56 1.02-0.65 1.64-0.61 0.67 0.04 1.07 0.41 1.29 0.84 0.2 0.43 0.2 1.02 0.1 1.23l-0.0117 0.0332-0.0078 0.0312c-0.01 0.22-0.25 0.53-0.61 0.82-0.35 0.29-0.77 0.55-1.1 0.78l-0.00977 0.00781-0.00977 0.00781c-0.66 0.49-0.82 1.23-0.79 1.75 0.0333 0.522 0.229 0.92 0.229 0.92 0.349 0.72 1.43 0.197 1.08-0.523 0 0-0.0944-0.207-0.111-0.473-0.02-0.26 0-0.49 0.31-0.72 0.27-0.18 0.73-0.46 1.13-0.82 0.5-0.36 0.9-0.81 1.1-1.44 0.2-0.64 0.1-1.41-0.2-2.14-0.4-0.74-1.23-1.39-2.37-1.4z"/>
</svg>
